<svg xmlns="http://www.w3.org/2000/svg" width="20" height="20" viewBox="0 0 20 20" fill="none">
    <path fill-rule="evenodd" clip-rule="evenodd" d="M18.75 10.0527C18.75 5.22023 14.8317 1.30273 10 1.30273C5.16833 1.30273 1.25 5.2194 1.25 10.0527C1.25 14.4194 4.45 18.0394 8.63333 18.6969V12.5827H6.41V10.0519H8.63167V8.12523C8.63167 5.93357 9.93833 4.72107 11.9367 4.72107C12.895 4.72107 13.8958 4.8919 13.8958 4.8919V7.04523H12.7925C11.7058 7.04523 11.3658 7.72023 11.3658 8.4119V10.0536H13.7925L13.405 12.5836H11.3667V18.6977C15.55 18.0411 18.7492 14.4219 18.7492 10.0536L18.75 10.0527Z" fill="#FBFBFB"/>
</svg>
