<svg xmlns="http://www.w3.org/2000/svg" width="16" height="16" viewBox="0 0 16 16" fill="none">
    <path d="M14.7861 6.92133L14.7148 6.62133H8.20148V9.37867H12.0935C11.6895 11.2973 9.81415 12.3073 8.28281 12.3073C7.16815 12.3073 5.99348 11.8387 5.21615 11.0853C4.80577 10.6814 4.47912 10.2005 4.2549 9.67018C4.03068 9.13983 3.9133 8.57045 3.90948 7.99467C3.90948 6.834 4.43148 5.672 5.19081 4.908C5.95081 4.144 7.09748 3.71667 8.23748 3.71667C9.54415 3.71667 10.4795 4.41 10.8295 4.726L12.7888 2.77733C12.2141 2.27267 10.6355 1 8.17415 1C6.27615 1 4.45548 1.72667 3.12481 3.05333C1.81148 4.36 1.13281 6.248 1.13281 8C1.13281 9.752 1.77615 11.5467 3.04881 12.8627C4.40815 14.266 6.33281 15 8.31615 15C10.1201 15 11.8295 14.2933 13.0495 13.0107C14.2468 11.748 14.8668 10.0013 14.8668 8.17C14.8668 7.39933 14.7901 6.94133 14.7861 6.92133Z" fill="#FBFBFB"/>
</svg>
