<svg xmlns="http://www.w3.org/2000/svg" width="20" height="20" viewBox="0 0 20 20" fill="none">
    <path d="M13.6458 2.70833C14.6119 2.71119 15.5376 3.09622 16.2207 3.77933C16.9038 4.46244 17.2888 5.38811 17.2917 6.35417V13.6458C17.2888 14.6119 16.9038 15.5376 16.2207 16.2207C15.5376 16.9038 14.6119 17.2888 13.6458 17.2917H6.35417C5.38818 17.2886 4.46263 16.9035 3.77957 16.2204C3.09651 15.5374 2.71141 14.6118 2.70833 13.6458V6.35417C2.71119 5.38811 3.09622 4.46244 3.77933 3.77933C4.46244 3.09622 5.38811 2.71119 6.35417 2.70833H13.6458ZM13.6458 1.25H6.35417C3.54667 1.25 1.25 3.54667 1.25 6.35417V13.6458C1.25 16.4533 3.54667 18.75 6.35417 18.75H13.6458C16.4533 18.75 18.75 16.4533 18.75 13.6458V6.35417C18.75 3.54667 16.4533 1.25 13.6458 1.25Z" fill="#FBFBFB"/>
    <path d="M14.7415 6.35393C14.5954 6.35797 14.4499 6.33266 14.3136 6.27951C14.1774 6.22636 14.0532 6.14644 13.9484 6.04448C13.8436 5.94251 13.7603 5.82058 13.7034 5.68587C13.6465 5.55116 13.6172 5.40641 13.6172 5.26018C13.6172 5.11395 13.6465 4.96921 13.7034 4.8345C13.7603 4.69979 13.8436 4.57785 13.9484 4.47589C14.0532 4.37392 14.1774 4.29401 14.3136 4.24085C14.4499 4.1877 14.5954 4.1624 14.7415 4.16643C15.0264 4.1743 15.2969 4.29298 15.4956 4.49724C15.6943 4.7015 15.8055 4.97522 15.8055 5.26018C15.8055 5.54515 15.6943 5.81887 15.4956 6.02313C15.2969 6.22739 15.0264 6.34607 14.7415 6.35393Z" fill="#FBFBFB"/>
    <path d="M10 7.08333C10.383 7.08333 10.7623 7.15877 11.1162 7.30535C11.47 7.45193 11.7916 7.66677 12.0624 7.93761C12.3332 8.20844 12.5481 8.52997 12.6946 8.88384C12.8412 9.23771 12.9167 9.61698 12.9167 10C12.9167 10.383 12.8412 10.7623 12.6946 11.1162C12.5481 11.47 12.3332 11.7916 12.0624 12.0624C11.7916 12.3332 11.47 12.5481 11.1162 12.6946C10.7623 12.8412 10.383 12.9167 10 12.9167C9.22645 12.9167 8.48459 12.6094 7.93761 12.0624C7.39062 11.5154 7.08333 10.7735 7.08333 10C7.08333 9.22645 7.39062 8.48459 7.93761 7.93761C8.48459 7.39062 9.22645 7.08333 10 7.08333ZM10 5.625C8.83968 5.625 7.72688 6.08594 6.90641 6.90641C6.08594 7.72688 5.625 8.83968 5.625 10C5.625 11.1603 6.08594 12.2731 6.90641 13.0936C7.72688 13.9141 8.83968 14.375 10 14.375C11.1603 14.375 12.2731 13.9141 13.0936 13.0936C13.9141 12.2731 14.375 11.1603 14.375 10C14.375 8.83968 13.9141 7.72688 13.0936 6.90641C12.2731 6.08594 11.1603 5.625 10 5.625Z" fill="#FBFBFB"/>
</svg>
