<svg width="103" height="44" viewBox="0 0 103 44" fill="none" xmlns="http://www.w3.org/2000/svg">
<path d="M20.2379 18.8383C21.1957 18.469 21.6652 18.1248 22.1593 18.1233C25.4781 18.1226 28.288 19.6641 30.4427 22.5057C35.363 28.9917 33.8127 38.1083 27.2819 41.5353C21.7473 44.4391 16.1668 43.942 10.8506 39.8187C4.79275 35.1193 1.35724 28.7208 0.896877 20.8301C0.426823 12.7855 3.90386 7.24914 10.0148 3.75041C17.0792 -0.292123 24.5863 -0.308099 32.3584 3.40944C36.3554 5.32185 40.0303 7.87941 43.6533 10.5553C46.7881 12.8706 49.887 15.2517 53.0677 17.4845C56.7477 20.0679 60.5898 22.3125 64.6778 23.9118C66.435 24.5986 68.2303 25.178 70.0323 25.6548C75.661 27.1436 80.6561 25.8309 85.0389 22.4073C87.8985 20.1736 90.6768 17.8062 93.339 15.3094C96.6865 12.1701 99.0376 8.23592 100.156 3.43115C100.358 2.56528 100.584 1.67377 100.991 0.928875C101.212 0.526811 101.838 0.407814 102.297 0.152841C102.523 0.658731 102.775 0.95855 102.74 1.18147C100.279 16.7228 92.0058 26.5893 78.1982 30.698C70.8056 32.8983 63.2039 32.2184 55.8224 28.5616C52.548 26.9397 49.4199 24.8646 46.3389 22.7788C43.3765 20.7733 40.5805 18.457 37.6778 16.3358C34.7649 14.2056 31.7005 12.4118 28.4209 11.1367C24.6916 9.68655 20.9256 9.12372 17.1379 9.74462C10.2004 10.8813 5.86253 17.532 7.10231 25.0498C8.4395 33.1549 17.872 37.8098 23.7257 33.2534C27.7702 30.1067 27.4474 24.306 23.0419 20.9438C22.2543 20.3429 21.4596 19.7539 20.2408 18.8372L20.2379 18.8383Z" fill="#D7A908"/>
</svg>
